<svg width="242" height="90" viewBox="0 0 242 90" fill="none" xmlns="http://www.w3.org/2000/svg">
<path d="M75.9375 37.2656H30.0937L39.0586 34.875L63.4922 28.3008L74.3906 25.3828C74.9245 25.2346 75.3786 24.8824 75.6548 24.4022C75.9311 23.922 76.0074 23.3524 75.8672 22.8164L72.9492 11.9531C72.6063 10.6972 71.7863 9.62485 70.6641 8.96484C70.1084 8.63529 69.4917 8.42177 68.8512 8.33717C68.2107 8.25258 67.5597 8.29867 66.9375 8.47266L12.5859 23.0273C11.3287 23.3653 10.2565 24.1877 9.60418 25.3144C8.95187 26.4411 8.77255 27.7804 9.10547 29.0391L11.9531 39.6563V70.3125C11.9531 71.6179 12.4717 72.8698 13.3947 73.7928C14.3177 74.7158 15.5696 75.2344 16.875 75.2344H73.125C74.4304 75.2344 75.6823 74.7158 76.6053 73.7928C77.5283 72.8698 78.0469 71.6179 78.0469 70.3125V39.375C78.0469 38.8156 77.8246 38.279 77.4291 37.8835C77.0335 37.4879 76.4969 37.2656 75.9375 37.2656ZM45.457 18.5977L57.4805 25.5586L38.8125 30.5508L26.7539 23.5898L45.457 18.5977ZM68.0273 12.5508H68.2031C68.3584 12.5473 68.51 12.5981 68.632 12.6943C68.7539 12.7906 68.8384 12.9263 68.8711 13.0781L71.2617 21.9023L63.2461 24.0469L51.1875 17.0508L68.0273 12.5508ZM13.6758 27.1055L20.9883 25.1367L33.0469 32.0977L15.5391 36.8086L13.1836 27.9492C13.1403 27.7722 13.1674 27.5853 13.2593 27.4279C13.3511 27.2705 13.5004 27.1549 13.6758 27.1055ZM73.8281 70.3125C73.8281 70.499 73.754 70.6778 73.6222 70.8097C73.4903 70.9416 73.3115 71.0156 73.125 71.0156H16.875C16.6885 71.0156 16.5097 70.9416 16.3778 70.8097C16.246 70.6778 16.1719 70.499 16.1719 70.3125V41.4844H73.8281V70.3125Z" fill="#FFC107"/>
<path d="M85.6953 60.502V59.8281C85.6953 57.543 86.0273 55.4238 86.6914 53.4707C87.3555 51.498 88.3125 49.7891 89.5625 48.3438C90.8125 46.8789 92.3262 45.7461 94.1035 44.9453C95.8809 44.125 97.873 43.7148 100.08 43.7148C102.307 43.7148 104.309 44.125 106.086 44.9453C107.883 45.7461 109.406 46.8789 110.656 48.3438C111.926 49.7891 112.893 51.498 113.557 53.4707C114.221 55.4238 114.553 57.543 114.553 59.8281V60.502C114.553 62.7871 114.221 64.9062 113.557 66.8594C112.893 68.8125 111.926 70.5215 110.656 71.9863C109.406 73.4316 107.893 74.5645 106.115 75.3848C104.357 76.1855 102.365 76.5859 100.139 76.5859C97.9121 76.5859 95.9102 76.1855 94.1328 75.3848C92.3555 74.5645 90.832 73.4316 89.5625 71.9863C88.3125 70.5215 87.3555 68.8125 86.6914 66.8594C86.0273 64.9062 85.6953 62.7871 85.6953 60.502ZM91.1152 59.8281V60.502C91.1152 62.084 91.3008 63.5781 91.6719 64.9844C92.043 66.3711 92.5996 67.6016 93.3418 68.6758C94.1035 69.75 95.0508 70.5996 96.1836 71.2246C97.3164 71.8301 98.6348 72.1328 100.139 72.1328C101.623 72.1328 102.922 71.8301 104.035 71.2246C105.168 70.5996 106.105 69.75 106.848 68.6758C107.59 67.6016 108.146 66.3711 108.518 64.9844C108.908 63.5781 109.104 62.084 109.104 60.502V59.8281C109.104 58.2656 108.908 56.791 108.518 55.4043C108.146 53.998 107.58 52.7578 106.818 51.6836C106.076 50.5898 105.139 49.7305 104.006 49.1055C102.893 48.4805 101.584 48.168 100.08 48.168C98.5957 48.168 97.2871 48.4805 96.1543 49.1055C95.041 49.7305 94.1035 50.5898 93.3418 51.6836C92.5996 52.7578 92.043 53.998 91.6719 55.4043C91.3008 56.791 91.1152 58.2656 91.1152 59.8281ZM127.238 31V76H121.789V31H127.238ZM149.094 76.5859C146.887 76.5859 144.885 76.2148 143.088 75.4727C141.311 74.7109 139.777 73.6465 138.488 72.2793C137.219 70.9121 136.242 69.291 135.559 67.416C134.875 65.541 134.533 63.4902 134.533 61.2637V60.0332C134.533 57.4551 134.914 55.1602 135.676 53.1484C136.438 51.1172 137.473 49.3984 138.781 47.9922C140.09 46.5859 141.574 45.5215 143.234 44.7988C144.895 44.0762 146.613 43.7148 148.391 43.7148C150.656 43.7148 152.609 44.1055 154.25 44.8867C155.91 45.668 157.268 46.7617 158.322 48.168C159.377 49.5547 160.158 51.1953 160.666 53.0898C161.174 54.9648 161.428 57.0156 161.428 59.2422V61.6738H137.756V57.25H156.008V56.8398C155.93 55.4336 155.637 54.0664 155.129 52.7383C154.641 51.4102 153.859 50.3164 152.785 49.457C151.711 48.5977 150.246 48.168 148.391 48.168C147.16 48.168 146.027 48.4316 144.992 48.959C143.957 49.4668 143.068 50.2285 142.326 51.2441C141.584 52.2598 141.008 53.5 140.598 54.9648C140.188 56.4297 139.982 58.1191 139.982 60.0332V61.2637C139.982 62.7676 140.188 64.1836 140.598 65.5117C141.027 66.8203 141.643 67.9727 142.443 68.9688C143.264 69.9648 144.25 70.7461 145.402 71.3125C146.574 71.8789 147.902 72.1621 149.387 72.1621C151.301 72.1621 152.922 71.7715 154.25 70.9902C155.578 70.209 156.74 69.1641 157.736 67.8555L161.018 70.4629C160.334 71.498 159.465 72.4844 158.41 73.4219C157.355 74.3594 156.057 75.1211 154.514 75.707C152.99 76.293 151.184 76.5859 149.094 76.5859ZM171.418 44.3008L178.361 55.8438L185.393 44.3008H191.75L181.379 59.9453L192.072 76H185.803L178.479 64.1055L171.154 76H164.855L175.52 59.9453L165.178 44.3008H171.418ZM195.5 60.502V59.8281C195.5 57.543 195.832 55.4238 196.496 53.4707C197.16 51.498 198.117 49.7891 199.367 48.3438C200.617 46.8789 202.131 45.7461 203.908 44.9453C205.686 44.125 207.678 43.7148 209.885 43.7148C212.111 43.7148 214.113 44.125 215.891 44.9453C217.688 45.7461 219.211 46.8789 220.461 48.3438C221.73 49.7891 222.697 51.498 223.361 53.4707C224.025 55.4238 224.357 57.543 224.357 59.8281V60.502C224.357 62.7871 224.025 64.9062 223.361 66.8594C222.697 68.8125 221.73 70.5215 220.461 71.9863C219.211 73.4316 217.697 74.5645 215.92 75.3848C214.162 76.1855 212.17 76.5859 209.943 76.5859C207.717 76.5859 205.715 76.1855 203.938 75.3848C202.16 74.5645 200.637 73.4316 199.367 71.9863C198.117 70.5215 197.16 68.8125 196.496 66.8594C195.832 64.9062 195.5 62.7871 195.5 60.502ZM200.92 59.8281V60.502C200.92 62.084 201.105 63.5781 201.477 64.9844C201.848 66.3711 202.404 67.6016 203.146 68.6758C203.908 69.75 204.855 70.5996 205.988 71.2246C207.121 71.8301 208.439 72.1328 209.943 72.1328C211.428 72.1328 212.727 71.8301 213.84 71.2246C214.973 70.5996 215.91 69.75 216.652 68.6758C217.395 67.6016 217.951 66.3711 218.322 64.9844C218.713 63.5781 218.908 62.084 218.908 60.502V59.8281C218.908 58.2656 218.713 56.791 218.322 55.4043C217.951 53.998 217.385 52.7578 216.623 51.6836C215.881 50.5898 214.943 49.7305 213.811 49.1055C212.697 48.4805 211.389 48.168 209.885 48.168C208.4 48.168 207.092 48.4805 205.959 49.1055C204.846 49.7305 203.908 50.5898 203.146 51.6836C202.404 52.7578 201.848 53.998 201.477 55.4043C201.105 56.791 200.92 58.2656 200.92 59.8281ZM237.043 44.3008V76H231.594V44.3008H237.043ZM231.184 35.8926C231.184 35.0137 231.447 34.2715 231.975 33.666C232.521 33.0605 233.322 32.7578 234.377 32.7578C235.412 32.7578 236.203 33.0605 236.75 33.666C237.316 34.2715 237.6 35.0137 237.6 35.8926C237.6 36.7324 237.316 37.4551 236.75 38.0605C236.203 38.6465 235.412 38.9395 234.377 38.9395C233.322 38.9395 232.521 38.6465 231.975 38.0605C231.447 37.4551 231.184 36.7324 231.184 35.8926Z" fill="#FFC107"/>
</svg>
 